Coordinates
version=1
nRows=54
nColumns=12
inDegrees=yes

Units are S.I. units (second, meters, Newtons, ...)
Angles are in degrees

endheader
time	SC_y	SC_z	SC_x	AC_y	AC_z	AC_x	GH_y	GH_z	GH_yy	EL_x	PS_y
       0.0              -26.65         -2.201          63.87           38.3          3.565          4.655         -60.07          7.244          103.4          132.8          36.28
   0.01121              -26.65         -2.198          63.87           38.3          3.564          4.651         -60.04          7.242          103.3          132.8          36.28
   0.02241              -26.65         -2.194          63.87          38.31          3.564          4.647         -60.01           7.24          103.3          132.7          36.29
   0.03362              -26.65         -2.191          63.86          38.31          3.563          4.644         -59.98          7.239          103.3          132.7           36.3
   0.04483              -26.66         -2.187          63.86          38.31          3.563          4.639         -59.95          7.237          103.3          132.7          36.31
   0.05603              -26.66         -2.183          63.86          38.32          3.562          4.635         -59.92          7.234          103.3          132.7          36.31
   0.06724              -26.66         -2.178          63.86          38.32          3.562           4.63         -59.88          7.232          103.3          132.7          36.32
   0.07845              -26.66         -2.174          63.85          38.33          3.561          4.625         -59.84           7.23          103.2          132.7          36.33
   0.08965              -26.66         -2.169          63.85          38.33          3.561           4.62          -59.8          7.227          103.2          132.6          36.34
    0.1009              -26.66         -2.163          63.85          38.34           3.56          4.614         -59.76          7.224          103.2          132.6          36.36
    0.1121              -26.66         -2.158          63.85          38.35           3.56          4.608         -59.71          7.221          103.2          132.6          36.37
    0.1233              -26.66         -2.151          63.84          38.35          3.559          4.601         -59.66          7.218          103.2          132.6          36.38
    0.1345              -26.66         -2.145          63.84          38.36          3.558          4.594          -59.6          7.214          103.1          132.5           36.4
    0.1457              -26.66         -2.137          63.83          38.37          3.557          4.586         -59.54          7.211          103.1          132.5          36.41
    0.1569              -26.67          -2.13          63.83          38.38          3.556          4.577         -59.47          7.206          103.1          132.5          36.43
    0.1681              -26.67         -2.121          63.83          38.39          3.555          4.568          -59.4          7.202          103.0          132.4          36.45
    0.1793              -26.67         -2.112          63.82           38.4          3.554          4.558         -59.33          7.197          103.0          132.4          36.47
    0.1905              -26.67         -2.102          63.82          38.41          3.553          4.547         -59.24          7.192          103.0          132.3          36.49
    0.2017              -26.67         -2.091          63.81          38.42          3.552          4.535         -59.15          7.186          102.9          132.3          36.51
    0.2129              -26.68         -2.079           63.8          38.43           3.55          4.522         -59.05           7.18          102.9          132.2          36.54
    0.2241              -26.68         -2.066           63.8          38.45          3.549          4.508         -58.94          7.173          102.8          132.2          36.56
    0.2353              -26.68         -2.051          63.79          38.46          3.547          4.492         -58.82          7.165          102.8          132.1          36.59
    0.2465              -26.69         -2.035          63.78          38.48          3.545          4.475         -58.69          7.157          102.7          132.0          36.63
    0.2578              -26.69         -2.017          63.77           38.5          3.543          4.455         -58.54          7.148          102.6          132.0          36.67
     0.269              -26.69         -1.997          63.76          38.52          3.541          4.434         -58.37          7.137          102.6          131.9          36.71
    0.2802               -26.7         -1.975          63.75          38.55          3.538           4.41         -58.19          7.126          102.5          131.8          36.75
    0.2914               -26.7         -1.951          63.74          38.58          3.535          4.383         -57.98          7.113          102.4          131.7          36.81
    0.3026              -26.71         -1.923          63.72          38.61          3.532          4.353         -57.75          7.098          102.3          131.5          36.87
    0.3138              -26.71         -1.891           63.7          38.64          3.528          4.319         -57.49          7.082          102.1          131.4          36.93
     0.325              -26.72         -1.856          63.68          38.68          3.524           4.28         -57.19          7.063          102.0          131.2          37.01
    0.3362              -26.73         -1.815          63.66          38.73           3.52          4.236         -56.86          7.042          101.9          131.1          37.09
    0.3474              -26.74         -1.768          63.64          38.78          3.514          4.186         -56.47          7.017          101.7          130.8          37.19
    0.3586              -26.75         -1.714          63.61          38.84          3.508          4.127         -56.02          6.989          101.5          130.6          37.31
    0.3698              -26.76         -1.652          63.58          38.91            3.5          4.059          -55.5          6.956          101.2          130.3          37.44
     0.381              -26.78         -1.578          63.54          38.99          3.492           3.98         -54.89          6.918          100.9          130.0           37.6
    0.3922              -26.79         -1.492          63.49          39.08          3.482          3.886         -54.17          6.872          100.6          129.6          37.78
    0.4034              -26.81         -1.389          63.44           39.2           3.47          3.775         -53.31          6.819          100.2          129.2           38.0
    0.4147              -26.84         -1.266          63.37          39.33          3.455          3.641         -52.28          6.754          99.72          128.6          38.26
    0.4259              -26.87         -1.117          63.29           39.5          3.438           3.48         -51.04          6.676          99.14          127.9          38.57
    0.4371               -26.9        -0.9345          63.19           39.7          3.417          3.283         -49.53          6.581          98.43          127.1          38.96
    0.4483              -26.95        -0.7098          63.07          39.95          3.391          3.039         -47.66          6.463          97.56          126.1          39.43
    0.4595               -27.0        -0.4296          62.92          40.26          3.358          2.736         -45.33          6.316          96.47          124.9          40.03
    0.4707              -27.07       -0.07655          62.73          40.65          3.317          2.353         -42.39          6.132           95.1          123.3          40.78
    0.4819              -27.16         0.3722          62.49          41.15          3.264          1.867         -38.66          5.897          93.36          121.3          41.73
    0.4931              -27.27         0.9466          62.19          41.79          3.197          1.245         -33.88          5.596          91.13          118.7          42.94
    0.5043              -27.42          1.684          61.79           42.6          3.111         0.4466         -27.74           5.21          88.27          115.4           44.5
    0.5155               -27.6          2.625          61.29          43.65          3.001        -0.5733         -19.91          4.717          84.62          111.2           46.5
    0.5267              -27.84          3.809          60.66          44.96          2.863         -1.856         -10.05          4.097          80.02          105.9           49.0
    0.5379              -28.12          5.252          59.89          46.56          2.695         -3.419          1.951          3.342          74.42           99.5          52.06
    0.5491              -28.45          6.924          58.99          48.41            2.5          -5.23          15.87          2.466          67.93          92.03           55.6
    0.5603              -28.81          8.735          58.03          50.42          2.289         -7.191          30.94          1.518           60.9          83.94          59.43
    0.5715              -29.17          10.55          57.06          52.43          2.077         -9.153           46.0           0.57          53.87          75.86          63.27
    0.5828               -29.5          12.22          56.17          54.28          1.882         -10.96          59.92        -0.3056          47.38          68.39          66.81
     0.594              -29.78          13.66           55.4          55.88          1.714         -12.53          71.93         -1.061          41.78          61.95          69.87
